<?xml version="1.0" encoding="utf-8"?>
<!-- Generator: Adobe Illustrator 16.0.0, SVG Export Plug-In . SVG Version: 6.00 Build 0)  -->
<!DOCTYPE svg PUBLIC "-//W3C//DTD SVG 1.1//EN" "http://www.w3.org/Graphics/SVG/1.1/DTD/svg11.dtd">
<svg version="1.1" id="Layer_1" xmlns="http://www.w3.org/2000/svg" xmlns:xlink="http://www.w3.org/1999/xlink" x="0px" y="0px"
	 width="300px" height="300px" viewBox="0 0 300 300" enable-background="new 0 0 300 300" xml:space="preserve">
<g>
	<g opacity="0.8">
		<path fill="#4F54A4" d="M289,137.087c0,6.027-5.143,10.913-11.487,10.913H97.487C91.143,148,86,143.114,86,137.087v-0.175
			C86,130.886,91.143,126,97.487,126h180.025c6.345,0,11.487,4.886,11.487,10.913V137.087z"/>
		<path fill="#4F54A4" d="M194.753,159c0-6.305,5.111-11,11.414-11H102.884c6.305,0,11.415,4.695,11.415,11
			c0,6.307-5.11,11-11.415,11h103.283C199.864,170,194.753,165.307,194.753,159z"/>
		<path fill="#4F54A4" d="M240,92.584c0,6.305-5.11,11.416-11.415,11.416H48.415C42.111,104,37,98.889,37,92.584v-0.168
			C37,86.111,42.111,81,48.415,81h180.17C234.89,81,240,86.111,240,92.416V92.584z"/>
		<path fill="#4F54A4" d="M194.753,114.5c0-6.304,5.111-11.5,11.414-11.5H102.884c6.305,0,11.415,5.196,11.415,11.5
			c0,6.305-5.11,11.5-11.415,11.5h103.283C199.864,126,194.753,120.805,194.753,114.5z"/>
		<path fill="#4F54A4" d="M230,182.148c0,6.305-5.419,11.852-11.726,11.852H37.691C31.385,194,26,188.453,26,182.148v-0.563
			C26,175.282,31.385,170,37.691,170h180.583c6.307,0,11.726,5.282,11.726,11.586V182.148z"/>
		<path fill="#4F54A4" d="M205.624,204.5c0-6.305,5.111-11.5,11.414-11.5H113.755c6.305,0,11.417,5.195,11.417,11.5
			S120.06,216,113.755,216h103.283C210.735,216,205.624,210.805,205.624,204.5z"/>
		<path fill="#4F54A4" d="M284,52.716C284,58.805,279.013,64,272.623,64H90.242C83.853,64,79,58.805,79,52.716v-0.898
			C79,45.729,83.853,41,90.242,41h182.381C279.013,41,284,45.729,284,51.817V52.716z"/>
		<path fill="#4F54A4" d="M191.491,75.5c0-6.304,5.11-11.5,11.414-11.5H99.623c6.304,0,11.415,5.196,11.415,11.5
			S105.927,87,99.623,87h103.282C196.602,87,191.491,81.804,191.491,75.5z"/>
		<path fill="#4F54A4" d="M293,227.586c0,6.304-5.11,11.414-11.414,11.414H101.414C95.11,239,90,233.89,90,227.586v-0.172
			C90,221.11,95.11,216,101.414,216h180.172c6.304,0,11.414,5.11,11.414,11.414V227.586z"/>
	</g>
	<path fill="#5DBE7E" d="M115.561,219.995c3.006,2.201,7.226,1.549,9.427-1.456l1.661-2.267c2.201-3.004,1.55-7.228-1.456-9.427
		l-45.342-33.219c-3.005-2.2-7.226-1.55-9.427,1.456l-1.661,2.267c-2.202,3.004-1.551,7.226,1.455,9.428L115.561,219.995z"/>
	<path fill="#5DBE7E" d="M68.42,177.975c-2.175,3.024-1.484,7.239,1.541,9.414l2.281,1.641c3.025,2.173,7.241,1.484,9.414-1.542
		l32.803-45.642c2.174-3.025,1.484-7.239-1.54-9.415l-2.282-1.639c-3.025-2.173-7.239-1.484-9.414,1.54L68.42,177.975z"/>
	<path fill="#5DBE7E" d="M210.438,180.886c-1.903,2.256-5.757,2.135-8.601-0.269l-2.146-1.813c-2.846-2.404-3.609-6.184-1.703-8.439
		l28.752-34.026c1.905-2.256,5.758-2.135,8.602,0.268l2.148,1.815c2.844,2.404,3.605,6.182,1.701,8.437L210.438,180.886z"/>
	<path fill="#5DBE7E" d="M210.056,167.733c2.707,2.56,2.825,6.83,0.266,9.534l-1.933,2.041c-2.559,2.708-6.828,2.826-9.534,0.266
		l-40.833-38.625c-2.706-2.563-2.825-6.831-0.265-9.536l1.932-2.042c2.56-2.705,6.83-2.824,9.535-0.265L210.056,167.733z"/>
	<path fill="#5DBE7E" d="M174,215.667c0,4.856-14.024,9.333-30.002,9.333h-12.609C115.41,225,103,220.523,103,215.667V133.47
		c0-4.855,12.41-8.47,28.389-8.47h12.609c15.978,0,30.002,3.614,30.002,8.47V215.667z"/>
	<g>
		<path fill="#F6977E" d="M137.842,139.466c8.164,0,14.783-6.618,14.783-14.781v-6.237c0-8.164-6.619-14.782-14.783-14.782
			c-8.163,0-14.779,6.618-14.779,14.782v6.237l0,0C123.063,132.848,129.679,139.466,137.842,139.466"/>
		<path fill="#1A112A" d="M170.326,80.38c0-12.788-7.49-23.824-18.323-28.962c-2.774,5.436-6.89,10.287-12.25,14.013
			c-9.727,6.761-21.489,8.393-32.08,5.475c-0.926,2.994-1.424,6.176-1.424,9.475c0,17.695,14.345,32.04,32.041,32.04
			C155.982,112.42,170.326,98.076,170.326,80.38"/>
		<g>
			<path fill="#F2C197" d="M112.728,100.647c0,12.168,9.865,22.033,22.033,22.033h6.793c12.167,0,22.033-9.865,22.033-22.033V79.789
				c0-12.169-9.866-22.033-22.033-22.033h-6.793c-12.168,0-22.033,9.864-22.033,22.033V100.647z"/>
		</g>
		<g>
			<path fill="#F2C197" d="M120.294,110.527c0,9.868,7.999,17.866,17.864,17.866c9.868,0,17.865-7.998,17.865-17.866V96.804
				c0-9.866-7.997-17.864-17.865-17.864c-9.865,0-17.864,7.998-17.864,17.864V110.527z"/>
		</g>
		<g>
			<path fill="#010101" d="M145.004,73.098c0,0.444,0.361,0.806,0.808,0.806h10.217c0.447,0,0.808-0.362,0.808-0.806
				c0-0.446-0.36-0.807-0.808-0.807h-10.217C145.365,72.29,145.004,72.652,145.004,73.098
				C145.004,73.098,145.004,72.652,145.004,73.098z"/>
			<g>
				<path fill="#010101" d="M144.412,73.26c0.246,1.207,1.225,1.256,2.225,1.256c1.47,0,2.938,0,4.406,0c1.385,0,2.771,0,4.161,0
					c0.98,0,2.243-0.09,2.243-1.418c0-1.25-1.156-1.42-2.107-1.42c-1.434,0-2.864,0-4.297,0c-1.423,0-2.842,0-4.262,0
					c-1.035,0-2.109-0.02-2.369,1.257c0.402,0.054,0.803,0.108,1.204,0.163c0-0.063,0-0.125,0-0.188c0-0.79-1.224-0.79-1.224,0
					c0,0.063,0,0.125,0,0.188c0,0.79,1.224,0.79,1.224,0c0-0.063,0-0.125,0-0.188c0-0.79-1.224-0.79-1.224,0
					c0,0.063,0,0.125,0,0.188c0,0.675,1.063,0.853,1.201,0.162c0.123-0.61,1.242-0.357,1.682-0.357c1.174,0,2.35,0,3.523,0
					c1.741,0,3.483,0,5.224,0c0.271,0,0.087,0.39-0.06,0.39c-0.094,0-0.189,0-0.284,0c-0.37,0-0.739,0-1.111,0
					c-1.175,0-2.349,0-3.524,0c-1.199,0-2.395,0-3.59,0c-0.449,0-1.732,0.273-1.859-0.358
					C145.438,72.161,144.258,72.489,144.412,73.26z"/>
			</g>
		</g>
		<circle fill="#010101" cx="150.121" cy="86.674" r="2.3"/>
		<circle fill="#010101" cx="125.622" cy="86.879" r="2.3"/>
		<path fill="#F6977E" d="M142.442,101.694v-9.147c0-1.623-1.316-2.938-2.938-2.938h-2.694c-1.621,0-2.936,1.315-2.936,2.938v9.147
			H142.442z"/>
		<path fill="#F2B88F" d="M140.971,65.066c4.449-4.285,7.564-9.43,9.341-14.917c-4.184-1.213-8.696-1.542-13.281-0.802
			c-13.456,2.171-21.94,12.864-23.749,25.665C123.619,76.136,132.898,72.84,140.971,65.066z"/>
		<g>
			<path fill="#F7F4FA" d="M152.425,103.822c0-0.054-0.002-0.104-0.002-0.156h-28.636c0,0.052-0.005,0.102-0.005,0.156
				c0,1.19,0.148,2.348,0.422,3.454h27.799C152.275,106.169,152.425,105.013,152.425,103.822z"/>
			<path fill="#FFFFFF" d="M138.104,118.143c3.443,0,6.601-1.218,9.07-3.244h-18.142
				C131.502,116.925,134.661,118.143,138.104,118.143z"/>
			<path fill="#161329" d="M124.204,107.276c0.754,3.042,2.481,5.697,4.828,7.623h2.718c1.479-1.882,3.775-3.092,6.354-3.092
				c2.579,0,4.874,1.209,6.354,3.092h2.716c2.349-1.926,4.075-4.581,4.83-7.623H124.204z"/>
			<path fill="#BC2328" d="M138.104,111.808c-2.579,0-4.875,1.209-6.354,3.092h12.708
				C142.977,113.017,140.682,111.808,138.104,111.808z"/>
		</g>
		<path fill="#1A112A" d="M139.752,65.431c5.361-3.727,9.476-8.577,12.25-14.014c-4.159-1.973-8.808-3.077-13.714-3.077
			c-14.397,0-26.576,9.495-30.616,22.565C118.264,73.824,130.026,72.192,139.752,65.431z"/>
		<path fill="none" d="M119.408,79.268l4.987-2.591C122.436,76.946,120.694,77.891,119.408,79.268z"/>
		<path fill="none" d="M125.557,93.428c4.648,0,8.415-3.769,8.415-8.417c0-1.162-0.238-2.267-0.663-3.274l-14.889,7.733
			C119.907,91.848,122.547,93.428,125.557,93.428z"/>
		<path fill="none" d="M131.013,78.607l-13.835,7.187c0.037,0.404,0.103,0.799,0.195,1.185l14.494-7.529
			C131.602,79.149,131.317,78.866,131.013,78.607z"/>
		<path opacity="0.3" fill="#FFFFFF" enable-background="new    " d="M117.373,86.978c0.214,0.895,0.571,1.734,1.046,2.493
			l14.889-7.733c-0.356-0.842-0.846-1.612-1.441-2.288L117.373,86.978z"/>
		<path opacity="0.3" fill="#FFFFFF" enable-background="new    " d="M125.557,76.595c-0.395,0-0.782,0.029-1.162,0.082
			l-4.987,2.591c-1.407,1.503-2.268,3.522-2.268,5.743c0,0.264,0.014,0.525,0.038,0.782l13.835-7.187
			C129.544,77.353,127.638,76.595,125.557,76.595z"/>
		<path fill="#010101" d="M117.178,85.793l-1.432,0.743c0.062,0.395,0.146,0.778,0.252,1.155l1.375-0.713
			C117.281,86.592,117.214,86.198,117.178,85.793z"/>
		<path fill="#010101" d="M133.309,81.737c0.425,1.006,0.663,2.112,0.663,3.274c0,4.648-3.767,8.416-8.415,8.416
			c-3.01,0-5.65-1.581-7.137-3.957l-1.344,0.699c1.741,2.859,4.887,4.77,8.481,4.77c5.482,0,9.927-4.446,9.927-9.929
			c0-1.413-0.298-2.756-0.828-3.973L133.309,81.737z"/>
		<path fill="#010101" d="M131.867,79.449l1.375-0.713c-0.25-0.305-0.516-0.598-0.8-0.872l-1.429,0.742
			C131.317,78.866,131.602,79.149,131.867,79.449z"/>
		<path fill="#010101" d="M133.309,81.737l1.347-0.699c-0.367-0.834-0.844-1.607-1.414-2.303l-1.374,0.713
			C132.463,80.125,132.953,80.896,133.309,81.737z"/>
		<path fill="#010101" d="M117.373,86.978l-1.375,0.714c0.248,0.882,0.611,1.714,1.078,2.477l1.344-0.699
			C117.944,88.712,117.587,87.873,117.373,86.978z"/>
		<path fill="#010101" d="M124.395,76.677l2.802-1.455c-0.533-0.088-1.081-0.137-1.64-0.137c-3.948,0-7.356,2.305-8.957,5.64
			l2.808-1.457C120.694,77.891,122.436,76.946,124.395,76.677z"/>
		<path fill="#010101" d="M117.14,85.011c0-2.221,0.862-4.24,2.268-5.743l-2.808,1.457c-0.622,1.298-0.97,2.751-0.97,4.287
			c0,0.52,0.041,1.028,0.116,1.525l1.432-0.743C117.154,85.536,117.14,85.275,117.14,85.011z"/>
		<path fill="#010101" d="M125.557,76.595c2.082,0,3.988,0.758,5.456,2.012l1.429-0.743c-1.411-1.36-3.226-2.306-5.245-2.642
			l-2.802,1.456C124.774,76.624,125.162,76.595,125.557,76.595z"/>
		<path fill="none" d="M156.797,79.405l-4.986-2.591C153.77,77.084,155.512,78.028,156.797,79.405z"/>
		<path fill="none" d="M150.65,93.566c-4.646,0-8.416-3.769-8.416-8.418c0-1.162,0.236-2.267,0.664-3.274l14.89,7.734
			C156.3,91.985,153.66,93.566,150.65,93.566z"/>
		<path fill="none" d="M145.193,78.745l13.836,7.186c-0.038,0.403-0.103,0.8-0.195,1.186l-14.494-7.529
			C144.604,79.287,144.889,79.003,145.193,78.745z"/>
		<path opacity="0.3" fill="#FFFFFF" enable-background="new    " d="M158.279,89.055c-0.215,0.896-0.572,1.734-1.047,2.492
			l-14.89-7.733c0.356-0.841,0.845-1.613,1.441-2.288L158.279,89.055z"/>
		<path opacity="0.3" fill="#FFFFFF" enable-background="new    " d="M150.65,76.731c0.395,0,0.782,0.03,1.16,0.082l4.986,2.591
			c1.41,1.504,2.27,3.523,2.27,5.744c0,0.264-0.014,0.524-0.037,0.782l-13.836-7.186C146.662,77.49,148.568,76.731,150.65,76.731z"
			/>
		<path fill="#010101" d="M159.029,85.931l1.43,0.742c-0.059,0.395-0.146,0.781-0.251,1.157l-1.374-0.713
			C158.927,86.73,158.991,86.334,159.029,85.931z"/>
		<path fill="#010101" d="M142.899,81.875c-0.428,1.007-0.664,2.112-0.664,3.274c0,4.649,3.769,8.418,8.416,8.418
			c3.01,0,5.649-1.582,7.139-3.958l1.344,0.697c-1.744,2.86-4.891,4.77-8.482,4.77c-5.482,0-9.927-4.445-9.927-9.927
			c0-1.412,0.296-2.756,0.829-3.973L142.899,81.875z"/>
		<path fill="#010101" d="M144.34,79.587l-1.375-0.714c0.249-0.305,0.516-0.598,0.798-0.872l1.43,0.743
			C144.889,79.003,144.604,79.287,144.34,79.587z"/>
		<path fill="#010101" d="M142.899,81.875l-1.347-0.699c0.366-0.834,0.843-1.606,1.413-2.303l1.375,0.714
			C143.743,80.262,143.253,81.033,142.899,81.875z"/>
		<path fill="#010101" d="M158.834,87.116l1.374,0.713c-0.245,0.881-0.61,1.713-1.075,2.477l-1.344-0.697
			C158.264,88.85,158.621,88.01,158.834,87.116z"/>
		<path fill="#010101" d="M151.811,76.814l-2.801-1.454c0.533-0.09,1.081-0.138,1.641-0.138c3.947,0,7.355,2.304,8.955,5.641
			l-2.809-1.458C155.512,78.028,153.77,77.084,151.811,76.814z"/>
		<path fill="#010101" d="M159.066,85.148c0-2.221-0.859-4.24-2.27-5.744l2.809,1.458c0.623,1.297,0.975,2.752,0.975,4.286
			c0,0.519-0.043,1.029-0.121,1.524l-1.43-0.742C159.053,85.673,159.066,85.412,159.066,85.148z"/>
		<path fill="#010101" d="M150.65,76.731c-2.082,0-3.988,0.759-5.457,2.013l-1.43-0.743c1.413-1.36,3.227-2.307,5.246-2.643
			l2.801,1.455C151.433,76.761,151.045,76.731,150.65,76.731z"/>
		<rect x="134.856" y="83.905" fill="#010101" width="6.833" height="1.497"/>
		<g>
			<g>
				<path fill="#F6977E" d="M142.008,124.525c-2.517,2.241-6.207,2.196-8.588-0.213c-0.557-0.563-1.42,0.303-0.866,0.865
					c2.867,2.898,7.312,2.892,10.318,0.214C143.463,124.866,142.594,124.003,142.008,124.525L142.008,124.525z"/>
			</g>
		</g>
		<g>
			<g>
				<path fill="#F6977E" d="M141.229,122.591c-1.979,1.745-4.855,1.891-6.773-0.019c-0.56-0.559-1.425,0.307-0.865,0.865
					c2.407,2.399,6.03,2.201,8.504,0.021C142.689,122.935,141.82,122.072,141.229,122.591L141.229,122.591z"/>
			</g>
		</g>
		<g>
			<path fill="#010101" d="M120.224,73.098c0,0.444,0.36,0.806,0.807,0.806h10.217c0.447,0,0.808-0.362,0.808-0.806
				c0-0.446-0.362-0.807-0.808-0.807h-10.217C120.584,72.29,120.224,72.652,120.224,73.098
				C120.224,73.098,120.224,72.652,120.224,73.098z"/>
			<g>
				<path fill="#010101" d="M119.634,73.26c0.242,1.207,1.222,1.256,2.222,1.256c1.469,0,2.937,0,4.405,0c1.388,0,2.774,0,4.162,0
					c0.982,0,2.245-0.09,2.245-1.418c0-1.25-1.157-1.42-2.109-1.42c-1.432,0-2.865,0-4.298,0c-1.418,0-2.841,0-4.261,0
					c-1.037,0-2.109-0.02-2.366,1.257c0.401,0.054,0.801,0.108,1.201,0.163c0-0.063,0-0.125,0-0.188c0-0.79-1.224-0.79-1.224,0
					c0,0.063,0,0.125,0,0.188c0,0.79,1.224,0.79,1.224,0c0-0.063,0-0.125,0-0.188c0-0.79-1.224-0.79-1.224,0
					c0,0.063,0,0.125,0,0.188c0,0.675,1.063,0.853,1.202,0.162c0.123-0.61,1.242-0.357,1.679-0.357c1.174,0,2.351,0,3.526,0
					c1.741,0,3.482,0,5.224,0c0.271,0,0.089,0.39-0.061,0.39c-0.093,0-0.188,0-0.282,0c-0.37,0-0.741,0-1.112,0
					c-1.175,0-2.35,0-3.525,0c-1.196,0-2.393,0-3.588,0c-0.449,0-1.731,0.273-1.86-0.358
					C120.658,72.161,119.477,72.489,119.634,73.26z"/>
			</g>
		</g>
	</g>
	<g>
		<path fill="#111420" d="M190,212.291c0,3.061-1.602,5.709-4.629,5.709H91.206c-3.029,0-6.206-2.648-6.206-5.709v-53.666
			c0-3.061,3.177-5.625,6.206-5.625h94.166c3.027,0,4.629,2.564,4.629,5.625V212.291z"/>
		<path fill="#0E1017" d="M192.225,221.5c0,1.698-1.281,3.5-2.861,3.5H87.191c-1.58,0-2.862-1.802-2.862-3.5l0,0
			c0-1.698,1.282-3.5,2.862-3.5h102.172C190.943,218,192.225,219.802,192.225,221.5L192.225,221.5z"/>
		<path fill="#12192F" d="M190,208.114c0,3.06-1.602,5.886-4.629,5.886H91.206c-3.029,0-6.206-2.826-6.206-5.886v-53.665
			c0-3.06,3.177-6.449,6.206-6.449h94.166c3.027,0,4.629,3.39,4.629,6.449V208.114z"/>
	</g>
	<path fill="#F2C197" d="M246.188,142.871c-2.621,3.754-7.813,4.654-11.597,2.011l-2.282-1.596
		c-3.781-2.644-4.723-7.828-2.101-11.581l9.893-14.156c2.622-3.753,7.816-4.654,11.597-2.01l2.283,1.595
		c3.781,2.642,4.723,7.828,2.101,11.58L246.188,142.871z"/>
	<path fill="#F2C197" d="M234.399,133.781c-0.278,2.445-2.298,4.221-4.515,3.97l-0.276-0.031c-2.216-0.251-3.788-2.435-3.511-4.879
		l0.984-8.695c0.278-2.444,2.3-4.221,4.515-3.97l0.275,0.032c2.217,0.25,3.789,2.435,3.512,4.879L234.399,133.781z"/>
	<rect x="10" y="225" fill="#393545" width="260" height="14"/>
	<rect x="34" y="202" fill="#1A1A1A" width="17" height="23"/>
	<circle fill="none" stroke="#1A1A1A" stroke-width="5" stroke-miterlimit="10" cx="34.269" cy="213.587" r="5.406"/>
	<g opacity="0.7">
		<g>
			<path fill="#1A1A1A" d="M39.307,199.606c2.893,0.215,9.599-2.594,6.934-6.491c-0.818-1.197-2.419-1.517-3.732-1.857
				c-0.584-0.151-1.185-0.283-1.706-0.598c0.395,0.238,0.036,0.9,0.33,0.416c0.343-0.566,1.05-1.022,1.556-1.424
				c1.515-1.202-0.623-3.311-2.121-2.121c-1.124,0.892-2.656,2.145-2.525,3.761c0.119,1.468,1.394,2.144,2.641,2.568
				c0.66,0.225,2.736,0.429,3.063,0.908c0.613,0.897-3.907,1.878-4.439,1.838C37.375,196.463,37.39,199.464,39.307,199.606
				L39.307,199.606z"/>
		</g>
	</g>
	<g opacity="0.7">
		<g>
			<path fill="#1A1A1A" d="M49.882,199.398c2.389-2.665,5.684-5.749,2.785-9.314c-1.221-1.502-3.33,0.634-2.121,2.121
				c1.302,1.602-1.837,4.015-2.785,5.072C46.474,198.713,48.589,200.842,49.882,199.398L49.882,199.398z"/>
		</g>
	</g>
	
		<text transform="matrix(1 0 0 1 134.981 188.0723)" fill="#EBEAF1" stroke="#9B9FA3" stroke-miterlimit="10" font-family="'MyriadPro-BoldCondIt'" font-size="33.4192">;</text>
	<text transform="matrix(1 0 0 1 36.6372 215.0488)" fill="#FFFFFF" font-family="'MyriadPro-BoldCondIt'" font-size="8.3548">&lt;/&gt;</text>
</g>
</svg>
