<?xml version="1.0" encoding="utf-8"?>
<!-- Generator: Adobe Illustrator 16.0.0, SVG Export Plug-In . SVG Version: 6.00 Build 0)  -->
<!DOCTYPE svg PUBLIC "-//W3C//DTD SVG 1.1//EN" "http://www.w3.org/Graphics/SVG/1.1/DTD/svg11.dtd">
<svg version="1.1" id="Layer_1" xmlns="http://www.w3.org/2000/svg" xmlns:xlink="http://www.w3.org/1999/xlink" x="0px" y="0px"
	 width="500px" height="500px" viewBox="0 0 500 500" enable-background="new 0 0 500 500" xml:space="preserve">
<g opacity="0.8">
	<path fill="#4F54A4" d="M490,225.005c0,11.144-9.753,19.995-21.482,19.995h-332.86C123.927,245,114,236.149,114,225.005v-0.324
		c0-11.143,9.927-20.681,21.658-20.681h332.86c11.729,0,21.482,9.538,21.482,20.681V225.005z"/>
	<path fill="#4F54A4" d="M315.496,264c0-12.385,9.451-21,21.107-21H145.637c11.658,0,21.106,8.615,21.106,21
		c0,12.39-9.448,21-21.106,21h190.967C324.947,285,315.496,276.39,315.496,264z"/>
	<path fill="#4F54A4" d="M400,142.221C400,153.693,389.563,164,378.09,164H44.399C32.928,164,24,153.693,24,142.221v-0.02
		C24,130.728,32.928,121,44.399,121h333.69c11.473,0,21.91,9.728,21.91,21.201V142.221z"/>
	<path fill="#4F54A4" d="M315.496,183.5c0-11.654,9.451-20.5,21.107-20.5H145.637c11.658,0,21.106,8.846,21.106,20.5
		c0,11.657-9.448,20.5-21.106,20.5h190.967C324.947,204,315.496,195.157,315.496,183.5z"/>
	<path fill="#4F54A4" d="M380,308.321c0,11.656-9.353,21.679-21.014,21.679H25.097C13.437,330,4,319.978,4,308.321v-1.042
		C4,295.627,13.437,285,25.097,285h333.89C370.647,285,380,295.627,380,307.279V308.321z"/>
	<path fill="#4F54A4" d="M335.599,350.5c0-12.211,9.45-21.5,21.103-21.5H165.736c11.658,0,21.108,9.289,21.108,21.5
		c0,12.214-9.45,21.5-21.108,21.5h190.965C345.049,372,335.599,362.714,335.599,350.5z"/>
	<path fill="#4F54A4" d="M483,72.017C483,83.275,471.292,92,459.477,92H122.262C110.448,92,101,83.275,101,72.017v-1.661
		C101,59.098,110.448,51,122.262,51h337.215C471.292,51,483,59.098,483,70.355V72.017z"/>
	<path fill="#4F54A4" d="M309.466,112c0-11.656,9.449-22,21.104-22H139.607c11.657,0,21.104,10.344,21.104,22
		c0,11.655-9.447,22-21.104,22H330.57C318.915,134,309.466,123.655,309.466,112z"/>
	<path fill="#4F54A4" d="M497,391.542c0,11.299-9.159,20.458-20.458,20.458H142.458C131.159,412,122,402.841,122,391.542v-0.084
		c0-11.299,9.159-20.458,20.458-20.458h334.084c11.299,0,20.458,9.159,20.458,20.458V391.542z"/>
</g>
<path fill="#5DBE7E" d="M201.583,385.972c5.112,3.744,12.293,2.636,16.036-2.477l2.826-3.856c3.744-5.109,2.635-12.296-2.478-16.037
	l-77.134-56.511c-5.113-3.744-12.293-2.637-16.037,2.476l-2.825,3.856c-3.746,5.11-2.638,12.293,2.475,16.04L201.583,385.972z"/>
<path fill="#5DBE7E" d="M121.386,314.487c-3.699,5.144-2.524,12.314,2.622,16.016l3.881,2.791
	c5.146,3.695,12.317,2.523,16.015-2.624l55.804-77.646c3.7-5.147,2.525-12.316-2.62-16.017l-3.883-2.788
	c-5.146-3.696-12.315-2.525-16.015,2.62L121.386,314.487z"/>
<path fill="#5DBE7E" d="M362.987,319.438c-3.239,3.838-9.795,3.633-14.632-0.456l-3.651-3.084
	c-4.843-4.09-6.141-10.519-2.898-14.356l48.912-57.885c3.242-3.837,9.795-3.632,14.632,0.456l3.657,3.087
	c4.837,4.089,6.132,10.517,2.894,14.353L362.987,319.438z"/>
<path fill="#5DBE7E" d="M362.337,297.065c4.605,4.354,4.806,11.619,0.451,16.22l-3.288,3.472c-4.351,4.605-11.615,4.808-16.22,0.452
	l-69.463-65.711c-4.604-4.357-4.808-11.619-0.452-16.222l3.286-3.473c4.356-4.602,11.619-4.805,16.222-0.449L362.337,297.065z"/>
<path fill="#5DBE7E" d="M301,378.608C301,386.87,277.14,393,249.959,393h-21.451C201.326,393,179,386.87,179,378.608V238.775
	c0-8.26,22.326-14.775,49.508-14.775h21.451C277.14,224,301,230.515,301,238.775V378.608z"/>
<g>
	<path fill="#F6977E" d="M239.487,248.977c13.888,0,25.146-11.26,25.146-25.146V213.22c0-13.889-11.259-25.146-25.146-25.146
		c-13.887,0-25.142,11.257-25.142,25.146v10.611l0,0C214.346,237.717,225.601,248.977,239.487,248.977"/>
	<path fill="#1A112A" d="M294.747,148.46c0-21.754-12.742-40.53-31.169-49.271c-4.722,9.248-11.722,17.5-20.841,23.838
		c-16.547,11.503-36.558,14.279-54.575,9.314c-1.576,5.093-2.423,10.507-2.423,16.119c0,30.104,24.403,54.506,54.507,54.506
		C270.349,202.966,294.747,178.563,294.747,148.46"/>
	<g>
		<path fill="#F2C197" d="M196.763,182.937c0,20.701,16.782,37.484,37.482,37.484h11.556c20.7,0,37.484-16.783,37.484-37.484
			v-35.483c0-20.701-16.784-37.483-37.484-37.483h-11.556c-20.701,0-37.482,16.782-37.482,37.483V182.937z"/>
	</g>
	<g>
		<path fill="#F2C197" d="M209.634,199.745c0,16.788,13.607,30.394,30.39,30.394c16.787,0,30.392-13.606,30.392-30.394v-23.344
			c0-16.785-13.605-30.39-30.392-30.39c-16.783,0-30.39,13.605-30.39,30.39V199.745z"/>
	</g>
	<g>
		<path fill="#010101" d="M251.672,136.071c0,0.756,0.613,1.373,1.373,1.373h17.381c0.76,0,1.374-0.616,1.374-1.373
			c0-0.758-0.614-1.373-1.374-1.373h-17.381C252.285,134.696,251.672,135.313,251.672,136.071
			C251.672,136.071,251.672,135.313,251.672,136.071z"/>
		<g>
			<path fill="#010101" d="M250.664,136.348c0.418,2.052,2.084,2.137,3.784,2.137c2.502,0,4.998,0,7.496,0c2.357,0,4.715,0,7.08,0
				c1.668,0,3.814-0.153,3.814-2.414c0-2.126-1.967-2.415-3.583-2.415c-2.44,0-4.875,0-7.312,0c-2.42,0-4.833,0-7.248,0
				c-1.762,0-3.59-0.034-4.032,2.138c0.685,0.091,1.367,0.184,2.048,0.276c0-0.106,0-0.212,0-0.319c0-1.344-2.082-1.344-2.082,0
				c0,0.106,0,0.213,0,0.319c0,1.344,2.082,1.344,2.082,0c0-0.106,0-0.212,0-0.319c0-1.344-2.082-1.344-2.082,0
				c0,0.106,0,0.213,0,0.319c0,1.149,1.809,1.451,2.046,0.277c0.206-1.038,2.111-0.608,2.859-0.608c1.996,0,3.996,0,5.992,0
				c2.964,0,5.926,0,8.889,0c0.458,0,0.148,0.663-0.102,0.663c-0.159,0-0.322,0-0.483,0c-0.63,0-1.258,0-1.89,0
				c-2.001,0-3.996,0-5.998,0c-2.038,0-4.072,0-6.106,0c-0.765,0-2.945,0.464-3.161-0.608
				C252.408,134.477,250.401,135.036,250.664,136.348z"/>
		</g>
	</g>
	<path fill="#010101" d="M260.375,155.253c2.163,0,3.917,1.752,3.917,3.911c0,2.164-1.754,3.914-3.917,3.914
		c-2.159,0-3.91-1.75-3.91-3.914C256.465,157.006,258.216,155.253,260.375,155.253z"/>
	<circle fill="#010101" cx="218.697" cy="159.516" r="3.913"/>
	<path fill="#F6977E" d="M247.313,184.718v-15.561c0-2.761-2.239-4.998-4.998-4.998h-4.583c-2.757,0-4.996,2.237-4.996,4.998v15.561
		H247.313z"/>
	<path fill="#F2B88F" d="M244.81,122.409c7.569-7.291,12.869-16.042,15.89-25.379c-7.115-2.062-14.792-2.623-22.593-1.363
		c-22.893,3.694-37.325,21.884-40.401,43.661C215.292,141.239,231.077,135.632,244.81,122.409z"/>
	<g>
		<path fill="#F7F4FA" d="M264.294,188.339c0-0.091-0.002-0.177-0.002-0.265h-48.715c-0.001,0.088-0.01,0.174-0.01,0.265
			c0,2.025,0.251,3.994,0.718,5.876h47.293C264.04,192.332,264.294,190.364,264.294,188.339z"/>
		<path fill="#FFFFFF" d="M239.934,212.701c5.855,0,11.227-2.072,15.428-5.518H224.5
			C228.702,210.629,234.074,212.701,239.934,212.701z"/>
		<path fill="#161329" d="M216.285,194.215c1.282,5.175,4.221,9.691,8.215,12.968h4.621c2.517-3.202,6.423-5.26,10.813-5.26
			c4.384,0,8.289,2.058,10.81,5.26h4.618c3.996-3.277,6.936-7.793,8.218-12.968H216.285z"/>
		<path fill="#BC2328" d="M239.934,201.923c-4.39,0-8.295,2.058-10.813,5.26h21.622
			C248.223,203.981,244.318,201.923,239.934,201.923z"/>
	</g>
	<path fill="#1A112A" d="M242.737,123.027c9.119-6.338,16.119-14.59,20.841-23.839c-7.077-3.356-14.985-5.234-23.332-5.234
		c-24.491,0-45.211,16.152-52.084,38.388C206.18,137.306,226.191,134.53,242.737,123.027z"/>
	<path fill="none" d="M208.127,146.567l8.482-4.408C213.279,142.618,210.315,144.225,208.127,146.567z"/>
	<path fill="none" d="M218.587,170.657c7.907,0,14.315-6.412,14.315-14.319c0-1.976-0.406-3.857-1.127-5.57l-25.331,13.158
		C208.975,167.968,213.467,170.657,218.587,170.657z"/>
	<path fill="none" d="M227.87,145.443l-23.538,12.226c0.063,0.688,0.176,1.359,0.333,2.015l24.657-12.809
		C228.871,146.366,228.387,145.884,227.87,145.443z"/>
	<path opacity="0.3" fill="#FFFFFF" enable-background="new    " d="M204.665,159.684c0.366,1.522,0.972,2.951,1.78,4.242
		l25.331-13.158c-0.607-1.431-1.439-2.742-2.454-3.891L204.665,159.684z"/>
	<path opacity="0.3" fill="#FFFFFF" enable-background="new    " d="M218.587,142.021c-0.671,0-1.332,0.048-1.978,0.138
		l-8.482,4.408c-2.395,2.557-3.858,5.991-3.858,9.77c0,0.449,0.025,0.894,0.063,1.331l23.538-12.226
		C225.37,143.309,222.128,142.021,218.587,142.021z"/>
	<path fill="#010101" d="M204.332,157.668l-2.436,1.264c0.105,0.67,0.25,1.324,0.429,1.965l2.338-1.214
		C204.508,159.027,204.396,158.356,204.332,157.668z"/>
	<path fill="#010101" d="M231.775,150.768c0.722,1.713,1.127,3.594,1.127,5.57c0,7.908-6.409,14.317-14.315,14.317
		c-5.12,0-9.613-2.688-12.143-6.729l-2.286,1.188c2.961,4.864,8.314,8.114,14.428,8.114c9.326,0,16.887-7.563,16.887-16.89
		c0-2.403-0.507-4.688-1.409-6.759L231.775,150.768z"/>
	<path fill="#010101" d="M229.322,146.875l2.34-1.213c-0.428-0.52-0.88-1.017-1.362-1.483l-2.429,1.262
		C228.387,145.884,228.871,146.366,229.322,146.875z"/>
	<path fill="#010101" d="M231.775,150.768l2.29-1.189c-0.625-1.418-1.435-2.733-2.404-3.917l-2.339,1.213
		C230.336,148.025,231.168,149.337,231.775,150.768z"/>
	<path fill="#010101" d="M204.665,159.684l-2.339,1.216c0.421,1.5,1.04,2.915,1.833,4.214l2.286-1.188
		C205.636,162.634,205.03,161.206,204.665,159.684z"/>
	<path fill="#010101" d="M216.609,142.159l4.767-2.475c-0.907-0.15-1.839-0.234-2.789-0.234c-6.718,0-12.516,3.922-15.238,9.596
		l4.777-2.479C210.315,144.225,213.279,142.618,216.609,142.159z"/>
	<path fill="#010101" d="M204.269,156.337c0-3.779,1.467-7.213,3.858-9.77l-4.777,2.479c-1.058,2.208-1.651,4.681-1.651,7.292
		c0,0.884,0.07,1.75,0.198,2.595l2.436-1.264C204.294,157.231,204.269,156.787,204.269,156.337z"/>
	<path fill="#010101" d="M218.587,142.021c3.541,0,6.783,1.288,9.283,3.422l2.429-1.264c-2.4-2.314-5.489-3.923-8.923-4.495
		l-4.767,2.476C217.255,142.069,217.917,142.021,218.587,142.021z"/>
	<path fill="none" d="M271.732,146.8l-8.482-4.408C266.583,142.853,269.547,144.458,271.732,146.8z"/>
	<path fill="none" d="M261.275,170.893c-7.902,0-14.315-6.413-14.315-14.321c0-1.977,0.4-3.857,1.131-5.569l25.329,13.157
		C270.888,168.202,266.396,170.893,261.275,170.893z"/>
	<path fill="none" d="M251.993,145.678l23.536,12.224c-0.063,0.687-0.173,1.362-0.331,2.017l-24.657-12.809
		C250.989,146.6,251.475,146.117,251.993,145.678z"/>
	<path opacity="0.3" fill="#FFFFFF" enable-background="new    " d="M274.253,163.217c-0.364,1.523-0.972,2.95-1.78,4.239
		l-25.329-13.155c0.605-1.432,1.437-2.744,2.45-3.893L274.253,163.217z"/>
	<path opacity="0.3" fill="#FFFFFF" enable-background="new    " d="M261.275,142.252c0.672,0,1.33,0.051,1.975,0.14l8.482,4.408
		c2.398,2.56,3.862,5.993,3.862,9.772c0,0.449-0.025,0.892-0.065,1.33l-23.536-12.224
		C254.492,143.543,257.734,142.252,261.275,142.252z"/>
	<path fill="#010101" d="M275.529,157.901l2.434,1.263c-0.1,0.671-0.249,1.328-0.426,1.968l-2.339-1.214
		C275.356,159.263,275.466,158.588,275.529,157.901z"/>
	<path fill="#010101" d="M248.091,151.002c-0.73,1.712-1.131,3.593-1.131,5.569c0,7.91,6.413,14.321,14.315,14.321
		c5.12,0,9.612-2.691,12.145-6.733l2.286,1.187c-2.967,4.865-8.32,8.113-14.431,8.113c-9.325,0-16.885-7.561-16.885-16.887
		c0-2.403,0.502-4.689,1.409-6.759L248.091,151.002z"/>
	<path fill="#010101" d="M250.542,147.11l-2.339-1.214c0.424-0.519,0.878-1.017,1.36-1.482l2.431,1.264
		C251.475,146.117,250.989,146.6,250.542,147.11z"/>
	<path fill="#010101" d="M248.091,151.002l-2.292-1.189c0.622-1.419,1.434-2.733,2.403-3.918l2.339,1.214
		C249.525,148.258,248.694,149.57,248.091,151.002z"/>
	<path fill="#010101" d="M275.198,159.918l2.339,1.214c-0.417,1.498-1.039,2.914-1.831,4.213l-2.286-1.187
		C274.229,162.867,274.837,161.44,275.198,159.918z"/>
	<path fill="#010101" d="M263.25,142.394l-4.766-2.474c0.909-0.153,1.84-0.235,2.791-0.235c6.716,0,12.515,3.919,15.235,9.596
		l-4.778-2.48C269.547,144.458,266.583,142.853,263.25,142.394z"/>
	<path fill="#010101" d="M275.595,156.572c0-3.779-1.464-7.212-3.862-9.772l4.778,2.48c1.061,2.207,1.658,4.683,1.658,7.292
		c0,0.882-0.073,1.75-0.206,2.593l-2.434-1.263C275.569,157.464,275.595,157.021,275.595,156.572z"/>
	<path fill="#010101" d="M261.275,142.252c-3.541,0-6.783,1.291-9.282,3.426l-2.431-1.264c2.403-2.315,5.487-3.925,8.922-4.496
		l4.766,2.475C262.605,142.303,261.947,142.252,261.275,142.252z"/>
	<rect x="234.407" y="154.456" fill="#010101" width="11.624" height="2.546"/>
	<g>
		<g>
			<path fill="#F6977E" d="M246.574,223.558c-4.281,3.813-10.56,3.737-14.61-0.361c-0.947-0.958-2.417,0.515-1.474,1.471
				c4.876,4.931,12.44,4.92,17.554,0.365C249.049,224.14,247.57,222.67,246.574,223.558L246.574,223.558z"/>
		</g>
	</g>
	<g>
		<g>
			<path fill="#F6977E" d="M245.25,220.268c-3.366,2.968-8.259,3.218-11.521-0.033c-0.952-0.95-2.424,0.522-1.471,1.472
				c4.093,4.081,10.255,3.745,14.465,0.037C247.733,220.854,246.253,219.387,245.25,220.268L245.25,220.268z"/>
		</g>
	</g>
	<g>
		<path fill="#010101" d="M209.516,136.071c0,0.756,0.612,1.373,1.373,1.373h17.381c0.76,0,1.374-0.616,1.374-1.373
			c0-0.758-0.616-1.373-1.374-1.373h-17.381C210.128,134.696,209.516,135.313,209.516,136.071
			C209.516,136.071,209.516,135.313,209.516,136.071z"/>
		<g>
			<path fill="#010101" d="M208.511,136.348c0.412,2.052,2.077,2.137,3.78,2.137c2.498,0,4.997,0,7.493,0c2.362,0,4.72,0,7.08,0
				c1.67,0,3.82-0.153,3.82-2.414c0-2.126-1.969-2.415-3.59-2.415c-2.435,0-4.871,0-7.311,0c-2.411,0-4.833,0-7.248,0
				c-1.764,0-3.587-0.034-4.025,2.138c0.683,0.091,1.363,0.184,2.043,0.276c0-0.106,0-0.212,0-0.319c0-1.344-2.082-1.344-2.082,0
				c0,0.106,0,0.213,0,0.319c0,1.344,2.082,1.344,2.082,0c0-0.106,0-0.212,0-0.319c0-1.344-2.082-1.344-2.082,0
				c0,0.106,0,0.213,0,0.319c0,1.149,1.807,1.451,2.043,0.277c0.209-1.038,2.113-0.608,2.857-0.608c1.996,0,4,0,5.998,0
				c2.962,0,5.925,0,8.887,0c0.46,0,0.151,0.663-0.104,0.663c-0.159,0-0.319,0-0.48,0c-0.63,0-1.261,0-1.894,0
				c-1.998,0-3.997,0-5.997,0c-2.034,0-4.07,0-6.104,0c-0.763,0-2.945,0.464-3.164-0.608
				C210.254,134.477,208.244,135.036,208.511,136.348z"/>
		</g>
	</g>
</g>
<g>
	<path fill="#111420" d="M330,372.865c0,5.206-4.508,10.135-9.657,10.135H160.149c-5.153,0-10.149-4.929-10.149-10.135v-91.296
		c0-5.206,4.997-9.569,10.149-9.569h160.193c5.149,0,9.657,4.363,9.657,9.569V372.865z"/>
	<path fill="#0E1017" d="M332.003,388c0,2.889-2.181,5-4.867,5H153.32c-2.688,0-4.869-2.111-4.869-5l0,0c0-2.889,2.18-5,4.869-5
		h173.816C329.822,383,332.003,385.111,332.003,388L332.003,388z"/>
	<path fill="#12192F" d="M330,365.759c0,5.205-4.508,12.241-9.657,12.241H160.149c-5.153,0-10.149-7.036-10.149-12.241v-91.294
		c0-5.203,4.997-10.465,10.149-10.465h160.193c5.149,0,9.657,5.262,9.657,10.465V365.759z"/>
</g>
<path fill="#F2C197" d="M423.805,254.768c-4.459,6.388-13.292,7.918-19.728,3.421l-3.883-2.714
	c-6.433-4.496-8.034-13.316-3.572-19.7l16.827-24.083c4.461-6.385,13.298-7.918,19.729-3.42l3.886,2.713
	c6.431,4.495,8.033,13.318,3.572,19.699L423.805,254.768z"/>
<path fill="#F2C197" d="M403.75,239.305c-0.475,4.159-3.91,7.181-7.681,6.754l-0.471-0.054c-3.769-0.427-6.443-4.142-5.972-8.3
	l1.673-14.793c0.474-4.158,3.913-7.181,7.683-6.753l0.468,0.054c3.77,0.425,6.445,4.142,5.975,8.301L403.75,239.305z"/>
<rect x="23" y="393" fill="#393545" width="442" height="25"/>
<rect x="62" y="356" fill="#1A1A1A" width="30" height="37"/>
<path fill="none" stroke="#1A1A1A" stroke-width="5" stroke-miterlimit="10" d="M72.486,375.069c0,5.083-4.119,9.198-9.198,9.198
	c-5.079,0-9.197-4.115-9.197-9.198c0-5.077,4.118-9.195,9.197-9.195C68.368,365.874,72.486,369.992,72.486,375.069z"/>
<g opacity="0.7">
	<g>
		<path fill="#1A1A1A" d="M71.859,350.235c4.089,0.304,14.883-3.621,10.889-9.462c-1.198-1.751-3.821-2.182-5.72-2.674
			c-1.082-0.28-2.189-0.542-3.153-1.124c-0.71-0.43,2.554-3.016,2.994-3.365c1.515-1.202-0.623-3.31-2.121-2.121
			c-3.727,2.956-5.963,7.07-0.268,9.008c1.483,0.504,4.89,0.639,5.84,2.028c1.979,2.895-6.93,4.823-8.46,4.71
			C69.928,347.092,69.942,350.093,71.859,350.235L71.859,350.235z"/>
	</g>
</g>
<g opacity="0.7">
	<g>
		<path fill="#1A1A1A" d="M89.106,350.189c3.592-4.006,9.181-8.896,4.738-14.358c-1.221-1.502-3.331,0.635-2.121,2.121
			c2.876,3.537-2.573,7.701-4.738,10.116C85.698,349.504,87.813,351.633,89.106,350.189L89.106,350.189z"/>
	</g>
</g>
<text transform="matrix(1 0 0 1 234.6167 331.6631)" fill="#EBEAF1" stroke="#9B9FA3" stroke-miterlimit="10" font-family="'MyriadPro-BoldCondIt'" font-size="56.8525">;</text>
<text transform="matrix(1 0 0 1 67.314 377.5576)" fill="#FFFFFF" font-family="'MyriadPro-BoldCondIt'" font-size="14.2131">&lt;/&gt;</text>
</svg>
