<?xml version="1.0" encoding="utf-8"?>
<!-- Generator: Adobe Illustrator 16.0.0, SVG Export Plug-In . SVG Version: 6.00 Build 0)  -->
<!DOCTYPE svg PUBLIC "-//W3C//DTD SVG 1.1//EN" "http://www.w3.org/Graphics/SVG/1.1/DTD/svg11.dtd">
<svg version="1.1" id="Layer_1" xmlns="http://www.w3.org/2000/svg" xmlns:xlink="http://www.w3.org/1999/xlink" x="0px" y="0px"
	 width="300px" height="300px" viewBox="0 0 300 300" enable-background="new 0 0 300 300" xml:space="preserve">
<g>
	<circle fill="none" stroke="#1A1A1A" stroke-width="3" stroke-miterlimit="10" cx="54.312" cy="185.751" r="4.14"/>
	<g opacity="0.7">
		<path fill="#4F54A4" d="M211,24.204c0,4.858-3.938,8.796-8.796,8.796H10.796C5.938,33,2,29.062,2,24.204v-1.408
			C2,17.938,5.938,14,10.796,14h191.408c4.857,0,8.796,3.938,8.796,8.796V24.204z"/>
		<path fill="#4F54A4" d="M162,41.691v-1.349c0-4.857,4.065-9.342,8.924-9.342H90.486C95.344,31,99,35.485,99,40.342v1.349
			C99,46.549,95.344,50,90.486,50h80.438C166.065,50,162,46.549,162,41.691z"/>
		<path fill="#4F54A4" d="M260,59.204c0,4.858-3.938,8.796-8.796,8.796H59.796C54.938,68,51,64.062,51,59.204v-1.408
			C51,52.938,54.938,49,59.796,49h191.408c4.857,0,8.796,3.938,8.796,8.796V59.204z"/>
		<path fill="#4F54A4" d="M170,76.128v-1.349c0-4.858,3.814-8.779,8.674-8.779h-80.44c4.859,0,8.767,3.921,8.767,8.779v1.349
			c0,4.857-3.908,8.872-8.767,8.872h80.44C173.814,85,170,80.985,170,76.128z"/>
		<path fill="#4F54A4" d="M226,92.205c0,4.857-3.938,8.795-8.796,8.795H25.796C20.938,101,17,97.063,17,92.205v-1.41
			C17,85.938,20.938,82,25.796,82h191.408c4.857,0,8.796,3.938,8.796,8.795V92.205z"/>
		<path fill="#4F54A4" d="M170,108.555c0-4.986-4.293-8.555-9.225-8.555h-44.372c-4.932,0-9.404,3.568-9.404,8.555v0.927
			c0,4.986,4.472,9.519,9.404,9.519h44.372c4.932,0,9.225-4.532,9.225-9.519V108.555z"/>
		<path fill="#4F54A4" d="M291,127.646c0,4.857-3.938,8.354-8.797,8.354H90.957c-4.858,0-8.957-3.496-8.957-8.354v-1.395
			c0-4.858,4.099-9.252,8.957-9.252h191.246c4.859,0,8.797,4.394,8.797,9.252V127.646z"/>
		<path fill="#4F54A4" d="M178,144.139v-1.348c0-4.859,3.562-8.791,8.422-8.791h-80.44c4.858,0,9.018,3.932,9.018,8.791v1.348
			c0,4.857-4.16,8.861-9.018,8.861h80.44C181.562,153,178,148.996,178,144.139z"/>
		<path fill="#4F54A4" d="M211,160.342c0,4.859-4.099,8.658-8.956,8.658H10.795C5.938,169,2,165.201,2,160.342v-1.393
			C2,154.091,5.938,150,10.795,150h191.249c4.857,0,8.956,4.091,8.956,8.949V160.342z"/>
		<path fill="#4F54A4" d="M172,176.854v-1.349c0-4.858,2.675-8.505,7.534-8.505H99.095c4.858,0,7.905,3.646,7.905,8.505v1.349
			c0,4.856-3.047,9.146-7.905,9.146h80.439C174.675,186,172,181.71,172,176.854z"/>
		<path fill="#4F54A4" d="M265,194.357c0,4.713-4.379,8.643-9.326,8.643H64.749c-4.947,0-8.749-3.93-8.749-8.643v-1.92
			c0-4.712,3.802-8.438,8.749-8.438h190.925c4.947,0,9.326,3.726,9.326,8.438V194.357z"/>
	</g>
	<path fill="#5DBE7E" d="M116.575,190.658c2.301,1.685,5.534,1.187,7.22-1.115l1.272-1.736c1.687-2.301,1.187-5.534-1.115-7.222
		l-34.728-25.441c-2.302-1.685-5.535-1.187-7.221,1.114l-1.271,1.737c-1.686,2.301-1.188,5.534,1.114,7.22L116.575,190.658z"/>
	<path fill="#5DBE7E" d="M80.469,158.474c-1.666,2.317-1.137,5.545,1.18,7.21l1.748,1.257c2.316,1.665,5.545,1.138,7.21-1.181
		l25.125-34.959c1.665-2.317,1.137-5.544-1.18-7.21l-1.748-1.257c-2.317-1.663-5.545-1.136-7.211,1.181L80.469,158.474z"/>
	<path fill="#5DBE7E" d="M189.244,160.704c-1.459,1.729-4.409,1.636-6.588-0.206l-1.645-1.389c-2.18-1.842-2.764-4.736-1.304-6.464
		l22.021-26.063c1.459-1.728,4.41-1.636,6.589,0.206l1.645,1.39c2.179,1.842,2.763,4.735,1.303,6.462L189.244,160.704z"/>
	<path fill="#5DBE7E" d="M188.951,150.63c2.072,1.96,2.163,5.229,0.203,7.303l-1.479,1.563c-1.96,2.074-5.231,2.165-7.304,0.203
		l-31.273-29.584c-2.073-1.961-2.164-5.231-0.204-7.303l1.479-1.563c1.961-2.074,5.23-2.164,7.304-0.203L188.951,150.63z"/>
	<path fill="#5DBE7E" d="M160,187.345c0,3.717-9.406,5.655-21.645,5.655h-9.658C116.46,193,106,191.062,106,187.345v-62.959
		c0-3.718,10.46-7.386,22.697-7.386h9.658c12.238,0,21.645,3.668,21.645,7.386V187.345z"/>
	<g>
		<path fill="#F6977E" d="M133.642,128.979c6.252,0,11.321-5.068,11.321-11.321v-4.777c0-6.253-5.068-11.321-11.321-11.321
			c-6.253,0-11.321,5.068-11.321,11.321v4.777l0,0C122.321,123.911,127.389,128.979,133.642,128.979"/>
		<path fill="#1A112A" d="M158.522,83.723c0-9.794-5.738-18.247-14.036-22.182c-2.125,4.163-5.277,7.878-9.382,10.733
			c-7.449,5.178-16.458,6.427-24.571,4.192c-0.709,2.294-1.091,4.731-1.091,7.257c0,13.554,10.986,24.541,24.54,24.541
			C147.536,108.264,158.522,97.277,158.522,83.723"/>
		<g>
			<path fill="#F2C197" d="M114.405,99.246c0,9.321,7.556,16.876,16.876,16.876h5.203c9.32,0,16.876-7.555,16.876-16.876V83.27
				c0-9.319-7.557-16.875-16.876-16.875h-5.203c-9.32,0-16.876,7.555-16.876,16.875V99.246z"/>
		</g>
		<g>
			<path fill="#F2C197" d="M120.2,106.814c0,7.558,6.126,13.684,13.683,13.684c7.558,0,13.683-6.126,13.683-13.684V96.304
				c0-7.558-6.125-13.683-13.683-13.683c-7.556,0-13.683,6.125-13.683,13.683V106.814z"/>
		</g>
		<g>
			<path fill="#010101" d="M139.127,78.146c0,0.34,0.276,0.617,0.618,0.617h7.826c0.34,0,0.618-0.277,0.618-0.617
				c0-0.342-0.278-0.618-0.618-0.618h-7.826C139.403,77.527,139.127,77.804,139.127,78.146
				C139.127,78.146,139.127,77.804,139.127,78.146z"/>
			<g>
				<path fill="#010101" d="M138.674,78.27c0.188,0.924,0.938,0.962,1.704,0.962c1.125,0,2.25,0,3.374,0c1.062,0,2.125,0,3.188,0
					c0.752,0,1.719-0.068,1.719-1.085c0-0.958-0.886-1.088-1.614-1.088c-1.099,0-2.195,0-3.292,0c-1.088,0-2.174,0-3.262,0
					c-0.794,0-1.617-0.016-1.815,0.962c0.308,0.042,0.615,0.083,0.921,0.126c0-0.048,0-0.097,0-0.146c0-0.604-0.938-0.604-0.938,0
					c0,0.048,0,0.097,0,0.146c0,0.604,0.938,0.604,0.938,0c0-0.048,0-0.097,0-0.146c0-0.604-0.938-0.604-0.938,0
					c0,0.048,0,0.097,0,0.146c0,0.517,0.815,0.652,0.921,0.124c0.095-0.467,0.951-0.273,1.287-0.273c0.899,0,1.8,0,2.7,0
					c1.333,0,2.668,0,4.001,0c0.208,0,0.067,0.298-0.046,0.298c-0.072,0-0.146,0-0.216,0c-0.284,0-0.569,0-0.854,0
					c-0.897,0-1.799,0-2.699,0c-0.916,0-1.833,0-2.748,0c-0.345,0-1.327,0.21-1.425-0.274
					C139.459,77.428,138.556,77.68,138.674,78.27z"/>
			</g>
		</g>
		<circle fill="#010101" cx="143.045" cy="88.544" r="1.761"/>
		<circle fill="#010101" cx="124.281" cy="88.701" r="1.762"/>
		<path fill="#F6977E" d="M137.164,100.049v-7.007c0-1.242-1.008-2.25-2.25-2.25h-2.063c-1.242,0-2.25,1.007-2.25,2.25v7.007
			H137.164z"/>
		<path fill="#F2B88F" d="M136.037,71.995c3.407-3.282,5.795-7.223,7.154-11.426c-3.204-0.929-6.66-1.182-10.172-0.614
			c-10.306,1.663-16.804,9.853-18.189,19.657C122.748,80.473,129.855,77.949,136.037,71.995z"/>
		<g>
			<path fill="#F7F4FA" d="M144.811,101.679c0-0.042-0.003-0.081-0.003-0.119h-21.933c0,0.038-0.003,0.077-0.003,0.119
				c0,0.912,0.113,1.798,0.324,2.646h21.291C144.696,103.477,144.811,102.591,144.811,101.679z"/>
			<path fill="#FFFFFF" d="M133.841,112.646c2.639,0,5.056-0.932,6.948-2.483h-13.896
				C128.786,111.714,131.204,112.646,133.841,112.646z"/>
			<path fill="#161329" d="M123.195,104.324c0.578,2.33,1.9,4.363,3.697,5.838h2.083c1.132-1.44,2.89-2.367,4.866-2.367
				s3.733,0.927,4.866,2.367h2.082c1.798-1.475,3.122-3.508,3.699-5.838H123.195z"/>
			<path fill="#BC2328" d="M133.841,107.795c-1.976,0-3.734,0.927-4.866,2.367h9.732
				C137.574,108.722,135.816,107.795,133.841,107.795z"/>
		</g>
		<path fill="#1A112A" d="M135.104,72.274c4.105-2.855,7.257-6.571,9.382-10.734c-3.185-1.511-6.746-2.356-10.504-2.356
			c-11.026,0-20.354,7.272-23.449,17.283C118.646,78.702,127.655,77.452,135.104,72.274z"/>
		<path fill="none" d="M119.522,82.871l3.819-1.984C121.841,81.093,120.507,81.816,119.522,82.871z"/>
		<path fill="none" d="M124.231,93.717c3.56,0,6.446-2.886,6.446-6.446c0-0.891-0.181-1.738-0.508-2.508l-11.404,5.924
			C119.904,92.507,121.926,93.717,124.231,93.717z"/>
		<path fill="none" d="M128.411,82.365l-10.597,5.504c0.028,0.309,0.079,0.613,0.15,0.908l11.101-5.766
			C128.862,82.781,128.644,82.564,128.411,82.365z"/>
		<path opacity="0.3" fill="#FFFFFF" enable-background="new    " d="M117.963,88.777c0.164,0.686,0.438,1.329,0.801,1.91
			l11.404-5.924c-0.273-0.645-0.648-1.235-1.105-1.752L117.963,88.777z"/>
		<path opacity="0.3" fill="#FFFFFF" enable-background="new    " d="M124.231,80.824c-0.302,0-0.599,0.022-0.89,0.063l-3.819,1.984
			c-1.078,1.152-1.737,2.698-1.737,4.4c0,0.202,0.011,0.4,0.029,0.598l10.597-5.504C127.286,81.405,125.826,80.824,124.231,80.824z"
			/>
		<path fill="#010101" d="M117.813,87.87l-1.097,0.569c0.047,0.302,0.113,0.597,0.194,0.886l1.052-0.547
			C117.892,88.482,117.842,88.179,117.813,87.87z"/>
		<path fill="#010101" d="M130.169,84.763c0.327,0.771,0.508,1.617,0.508,2.508c0,3.56-2.886,6.445-6.446,6.445
			c-2.305,0-4.327-1.21-5.466-3.029l-1.03,0.535c1.334,2.189,3.744,3.652,6.496,3.652c4.199,0,7.604-3.404,7.604-7.604
			c0-1.083-0.227-2.112-0.634-3.043L130.169,84.763z"/>
		<path fill="#010101" d="M129.064,83.011l1.054-0.547c-0.193-0.234-0.395-0.458-0.613-0.667l-1.094,0.568
			C128.644,82.564,128.862,82.781,129.064,83.011z"/>
		<path fill="#010101" d="M130.169,84.763l1.031-0.536c-0.28-0.639-0.647-1.231-1.083-1.763l-1.053,0.547
			C129.521,83.527,129.896,84.119,130.169,84.763z"/>
		<path fill="#010101" d="M117.963,88.777l-1.053,0.548c0.188,0.675,0.467,1.311,0.824,1.896l1.03-0.535
			C118.401,90.106,118.127,89.463,117.963,88.777z"/>
		<path fill="#010101" d="M123.341,80.887l2.146-1.114c-0.41-0.068-0.828-0.106-1.256-0.106c-3.024,0-5.635,1.766-6.86,4.321
			l2.151-1.117C120.507,81.816,121.841,81.093,123.341,80.887z"/>
		<path fill="#010101" d="M117.785,87.271c0-1.703,0.661-3.248,1.737-4.4l-2.151,1.117c-0.477,0.994-0.744,2.107-0.744,3.284
			c0,0.396,0.031,0.787,0.089,1.167l1.097-0.569C117.796,87.672,117.785,87.473,117.785,87.271z"/>
		<path fill="#010101" d="M124.231,80.824c1.595,0,3.055,0.581,4.18,1.541l1.094-0.568c-1.082-1.042-2.47-1.767-4.017-2.024
			l-2.146,1.115C123.632,80.846,123.929,80.824,124.231,80.824z"/>
		<path fill="none" d="M148.16,82.976l-3.82-1.985C145.841,81.199,147.174,81.921,148.16,82.976z"/>
		<path fill="none" d="M143.451,93.822c-3.56,0-6.446-2.886-6.446-6.446c0-0.891,0.181-1.738,0.509-2.508l11.405,5.924
			C147.778,92.612,145.756,93.822,143.451,93.822z"/>
		<path fill="none" d="M139.271,82.47l10.598,5.503c-0.03,0.31-0.079,0.614-0.151,0.909l-11.101-5.766
			C138.82,82.887,139.039,82.669,139.271,82.47z"/>
		<path opacity="0.3" fill="#FFFFFF" enable-background="new    " d="M149.293,90.367c-0.162,0.686-0.438,1.329-0.801,1.91
			l-11.405-5.923c0.272-0.645,0.648-1.236,1.104-1.753L149.293,90.367z"/>
		<path opacity="0.3" fill="#FFFFFF" enable-background="new    " d="M143.451,80.93c0.303,0,0.599,0.022,0.889,0.062l3.82,1.985
			c1.078,1.153,1.738,2.698,1.738,4.4c0,0.201-0.012,0.4-0.029,0.597l-10.598-5.503C140.396,81.51,141.855,80.93,143.451,80.93z"/>
		<path fill="#010101" d="M149.869,87.974l1.096,0.571c-0.046,0.301-0.113,0.596-0.193,0.884l-1.052-0.546
			C149.79,88.588,149.839,88.284,149.869,87.974z"/>
		<path fill="#010101" d="M137.514,84.868c-0.328,0.771-0.509,1.617-0.509,2.508c0,3.56,2.886,6.446,6.446,6.446
			c2.305,0,4.327-1.21,5.468-3.03l1.028,0.535c-1.336,2.19-3.744,3.653-6.496,3.653c-4.199,0-7.604-3.405-7.604-7.604
			c0-1.083,0.227-2.112,0.634-3.044L137.514,84.868z"/>
		<path fill="#010101" d="M138.617,83.116l-1.052-0.547c0.191-0.235,0.394-0.458,0.611-0.667l1.095,0.568
			C139.039,82.669,138.82,82.887,138.617,83.116z"/>
		<path fill="#010101" d="M137.514,84.868l-1.032-0.536c0.28-0.639,0.647-1.229,1.083-1.763l1.052,0.547
			C138.161,83.632,137.786,84.224,137.514,84.868z"/>
		<path fill="#010101" d="M149.72,88.882l1.052,0.546c-0.188,0.676-0.467,1.313-0.824,1.898l-1.028-0.535
			C149.281,90.21,149.556,89.567,149.72,88.882z"/>
		<path fill="#010101" d="M144.34,80.992l-2.146-1.113c0.409-0.069,0.828-0.106,1.257-0.106c3.024,0,5.634,1.764,6.86,4.32
			l-2.151-1.117C147.174,81.921,145.841,81.199,144.34,80.992z"/>
		<path fill="#010101" d="M149.898,87.376c0-1.703-0.66-3.248-1.738-4.4l2.151,1.117c0.476,0.994,0.743,2.107,0.743,3.284
			c0,0.396-0.031,0.787-0.09,1.168l-1.096-0.571C149.887,87.777,149.898,87.577,149.898,87.376z"/>
		<path fill="#010101" d="M143.451,80.93c-1.596,0-3.055,0.581-4.18,1.541l-1.095-0.568c1.083-1.043,2.471-1.767,4.018-2.025
			l2.146,1.114C144.05,80.952,143.754,80.93,143.451,80.93z"/>
		<rect x="131.354" y="86.423" fill="#010101" width="5.232" height="1.147"/>
		<g>
			<g>
				<path fill="#F6977E" d="M136.831,117.535c-1.927,1.717-4.753,1.682-6.577-0.163c-0.426-0.432-1.089,0.231-0.665,0.662
					c2.195,2.221,5.601,2.215,7.904,0.165C137.946,117.796,137.281,117.135,136.831,117.535L136.831,117.535z"/>
			</g>
		</g>
		<g>
			<g>
				<path fill="#F6977E" d="M136.236,116.055c-1.516,1.336-3.718,1.448-5.187-0.016c-0.43-0.428-1.092,0.235-0.664,0.662
					c1.844,1.838,4.619,1.687,6.513,0.017C137.354,116.317,136.688,115.656,136.236,116.055L136.236,116.055z"/>
			</g>
		</g>
		<g>
			<path fill="#010101" d="M120.147,78.146c0,0.34,0.276,0.617,0.618,0.617h7.826c0.342,0,0.618-0.277,0.618-0.617
				c0-0.342-0.277-0.618-0.618-0.618h-7.826C120.423,77.527,120.147,77.804,120.147,78.146
				C120.147,78.146,120.147,77.804,120.147,78.146z"/>
			<g>
				<path fill="#010101" d="M119.695,78.27c0.186,0.924,0.936,0.962,1.703,0.962c1.124,0,2.249,0,3.373,0c1.063,0,2.125,0,3.188,0
					c0.752,0,1.719-0.068,1.719-1.085c0-0.958-0.886-1.088-1.615-1.088c-1.097,0-2.195,0-3.292,0c-1.087,0-2.176,0-3.263,0
					c-0.793,0-1.615-0.016-1.813,0.962c0.307,0.042,0.614,0.083,0.921,0.126c0-0.048,0-0.097,0-0.146c0-0.604-0.938-0.604-0.938,0
					c0,0.048,0,0.097,0,0.146c0,0.604,0.938,0.604,0.938,0c0-0.048,0-0.097,0-0.146c0-0.604-0.938-0.604-0.938,0
					c0,0.048,0,0.097,0,0.146c0,0.517,0.813,0.652,0.921,0.124c0.094-0.467,0.951-0.273,1.286-0.273c0.899,0,1.8,0,2.701,0
					c1.333,0,2.668,0,4,0c0.208,0,0.069,0.298-0.045,0.298c-0.073,0-0.144,0-0.217,0c-0.282,0-0.566,0-0.851,0c-0.9,0-1.8,0-2.701,0
					c-0.916,0-1.833,0-2.748,0c-0.344,0-1.326,0.21-1.424-0.274C120.479,77.428,119.575,77.68,119.695,78.27z"/>
			</g>
		</g>
	</g>
	<g>
		<path fill="#111420" d="M175,184.757c0,2.345-2.636,4.243-4.956,4.243H97.92c-2.319,0-3.92-1.898-3.92-4.243v-41.103
			c0-2.345,1.602-3.654,3.92-3.654h72.124c2.32,0,4.956,1.31,4.956,3.654V184.757z"/>
		<path fill="#0E1017" d="M175.295,191c0,1.3-0.981,2-2.191,2H94.846c-1.21,0-2.191-0.7-2.191-2l0,0c0-1.302,0.981-2,2.191-2h78.258
			C174.313,189,175.295,189.698,175.295,191L175.295,191z"/>
		<path fill="#12192F" d="M175,181.558c0,2.345-2.636,4.442-4.956,4.442H97.92c-2.319,0-3.92-2.098-3.92-4.442v-41.104
			c0-2.344,1.602-4.454,3.92-4.454h72.124c2.32,0,4.956,2.11,4.956,4.454V181.558z"/>
	</g>
	<path fill="#F2C197" d="M216.626,131.587c-2.008,2.875-5.985,3.563-8.882,1.539l-1.748-1.222c-2.896-2.024-3.617-5.996-1.609-8.869
		l7.577-10.844c2.009-2.873,5.985-3.563,8.882-1.538l1.749,1.221c2.896,2.024,3.617,5.995,1.608,8.87L216.626,131.587z"/>
	<path fill="#F2C197" d="M207.597,124.625c-0.212,1.872-1.76,3.233-3.457,3.041l-0.213-0.025c-1.696-0.192-2.9-1.864-2.688-3.735
		l0.753-6.661c0.213-1.872,1.762-3.232,3.458-3.041l0.212,0.024c1.698,0.192,2.902,1.866,2.689,3.737L207.597,124.625z"/>
	<rect x="36" y="193" fill="#393545" width="200" height="12"/>
	<rect x="54" y="177" fill="#1A1A1A" width="13" height="17"/>
	<g opacity="0.6">
		<g>
			<path fill="#1A1A1A" d="M58.171,175.394c2.489,0.185,7.831-2.265,5.614-5.502c-0.69-1.008-1.956-1.294-3.069-1.582
				c-0.462-0.12-0.873-0.211-1.223-0.423c0.456,0.275,0.188,1.114,0.379,0.799c0.243-0.4,0.779-0.735,1.137-1.02
				c1.515-1.202-0.623-3.311-2.121-2.121c-0.94,0.746-2.146,1.789-2.038,3.129c0.105,1.303,1.16,1.925,2.28,2.306
				c0.458,0.155,0.934,0.259,1.401,0.383c0.345,0.093,0.948,0.459,0.737,0.15c-0.172-0.251-0.743,0.33-1.117,0.513
				c-0.592,0.288-1.327,0.416-1.979,0.368C56.24,172.251,56.254,175.252,58.171,175.394L58.171,175.394z"/>
		</g>
	</g>
	<g opacity="0.6">
		<g>
			<path fill="#1A1A1A" d="M66.519,175.131c1.985-2.213,4.512-4.706,2.133-7.632c-1.221-1.502-3.33,0.634-2.121,2.121
				c0.75,0.923-1.601,2.795-2.133,3.39C63.11,174.445,65.225,176.574,66.519,175.131L66.519,175.131z"/>
		</g>
	</g>
	
		<text transform="matrix(1 0 0 1 131.4487 166.207)" fill="#EBEAF1" stroke="#9B9FA3" stroke-miterlimit="10" font-family="'MyriadPro-BoldCondIt'" font-size="25.5966">;</text>
	<text transform="matrix(1 0 0 1 56.1255 186.8682)" fill="#FFFFFF" font-family="'MyriadPro-BoldCondIt'" font-size="6.3991">&lt;/&gt;</text>
</g>
</svg>
